Coordinates
version=1
nRows=14
nColumns=24
inDegrees=yes

Units are S.I. units (second, meters, Newtons, ...)
Angles are in degrees.

endheader
time	pelvis_tilt	pelvis_list	pelvis_rotation	pelvis_tx	pelvis_ty	pelvis_tz	hip_flexion_r	hip_adduction_r	hip_rotation_r	knee_angle_r	ankle_angle_r	subtalar_angle_r	mtp_angle_r	hip_flexion_l	hip_adduction_l	hip_rotation_l	knee_angle_l	ankle_angle_l	subtalar_angle_l	mtp_angle_l	lumbar_extension	lumbar_bending	lumbar_rotation
      3.62500000	    -11.03501681	      0.18063788	      2.72705166	     -1.60272505	     -0.02895378	     -0.70883240	     34.47579398	     -2.93607892	    -12.44482935	    -13.48010783	     -6.90603690	     -4.98972082	     11.74235685	     -5.88902135	      0.83317406	    -11.72258604	    -14.71911066	      8.69120390	      7.90451072	      7.16369694	      8.16047009	      1.72081486	     -9.83410705
      3.63000000	    -11.08340087	     -0.02782768	      2.52161250	     -1.59542353	     -0.02947229	     -0.70750945	     34.56831551	     -2.50676839	    -11.66286444	    -14.30751433	     -7.28303910	     -5.82528948	      9.40969479	     -5.83138647	      0.38348672	    -12.06326690	    -15.60680831	      8.23774606	      8.22356550	      6.90963253	      8.35108551	      1.97826098	     -9.73204693
      3.63500000	    -11.12728207	     -0.26125943	      2.49971377	     -1.58823997	     -0.02982998	     -0.70651705	     34.63101496	     -2.20839842	    -11.32412210	    -15.04718277	     -7.91120523	     -6.80334656	      9.00108201	     -5.71431923	     -0.06303775	    -11.88815694	    -16.53560023	      7.59161418	      8.09154019	      6.81197807	      8.51972224	      2.24643875	     -9.83299885
      3.64000000	    -11.22778335	     -0.48435188	      2.24762414	     -1.58094447	     -0.03021706	     -0.70509722	     34.77583932	     -1.74787310	    -10.62010541	    -15.84235425	     -8.29665656	     -7.81824953	      7.32189727	     -5.51801378	     -0.53172641	    -12.24748263	    -17.54030161	      6.91795019	      8.23308776	      6.74079340	      8.76086569	      2.52752426	     -9.66523123
      3.64500000	    -11.28599210	     -0.73382776	      2.22216158	     -1.57379630	     -0.03031034	     -0.70405836	     34.81931433	     -1.43524654	    -10.32403665	    -16.54239512	     -8.77025688	     -8.78052886	      6.71802526	     -5.27340614	     -1.01107930	    -12.12873231	    -18.62003551	      6.05696405	      8.04460784	      6.63937632	      8.93703077	      2.81478871	     -9.79168379
      3.65000000	    -11.41241675	     -0.95171646	      1.93783787	     -1.56651529	     -0.03049496	     -0.70252611	     34.96973514	     -0.95982229	     -9.71329112	    -17.33532064	     -8.86549943	     -9.67125819	      4.69969490	     -4.94752444	     -1.49502322	    -12.53872670	    -19.76899344	      5.14620751	      8.08417237	      6.68249917	      9.19781865	      3.09170118	     -9.59068910
      3.65500000	    -11.49298323	     -1.17371114	      1.79692268	     -1.55931698	     -0.03041244	     -0.70122714	     35.00412057	     -0.57946011	     -9.32880828	    -18.02351171	     -8.94530495	    -10.48448985	      3.25488703	     -4.58698666	     -1.97309544	    -12.65229117	    -20.98823641	      4.02246568	      7.84813445	      6.72901950	      9.39937907	      3.35741447	     -9.58387628
      3.66000000	    -11.55848647	     -1.38673848	      1.63159594	     -1.55208808	     -0.03022639	     -0.69988394	     34.98617751	     -0.19006512	     -8.97726008	    -18.65941656	     -8.89527946	    -11.18688475	      1.97706157	     -4.18911568	     -2.45745346	    -12.83899528	    -22.28575888	      2.77974775	      7.58959723	      6.82505693	      9.58701321	      3.61899104	     -9.55940883
      3.66500000	    -11.55933728	     -1.57941528	      1.53449674	     -1.54488687	     -0.02984504	     -0.69866581	     34.83432238	      0.13677136	     -8.74434992	    -19.17483714	     -8.85115360	    -11.87526028	      1.51479725	     -3.79280447	     -2.91116602	    -12.87763572	    -23.65324965	      1.39581233	      7.15976658	      6.70910752	      9.70219880	      3.85177866	     -9.63257565
      3.67000000	    -11.66040303	     -1.73694590	      1.27442376	     -1.53769424	     -0.02956544	     -0.69713341	     34.80075140	      0.55486985	     -8.32691484	    -19.72840412	     -8.55066946	    -12.35552457	     -0.00746773	     -3.25272366	     -3.36215177	    -13.19764298	    -25.08843251	     -0.16685704	      6.75957407	      7.07872394	      9.91103724	      4.06785227	     -9.46824719
      3.67500000	    -11.59419525	     -1.94846187	      1.13931742	     -1.53041438	     -0.02896868	     -0.69591673	     34.47133885	      0.93206608	     -8.18029716	    -20.06965227	     -8.36051332	    -12.82355498	     -0.14773350	     -2.84125712	     -3.84171252	    -13.25979701	    -26.56920218	     -1.79005186	      6.16059709	      6.82521536	      9.96309366	      4.33831510	     -9.46106720
      3.68000000	    -11.56317621	     -2.10366258	      0.97361806	     -1.52331616	     -0.02838703	     -0.69460007	     34.16722774	      1.29853754	     -7.90788302	    -20.36943310	     -8.16420658	    -13.33535701	     -0.37915052	     -2.31902145	     -4.26518390	    -13.32225579	    -28.13710964	     -3.52637851	      5.46803920	      6.59798522	     10.01829211	      4.54471699	     -9.40972986
      3.68500000	    -11.67435454	     -2.16337791	      0.74462476	     -1.51641725	     -0.02795764	     -0.69309521	     34.03520043	      1.64374387	     -7.39547458	    -20.71669072	     -7.77919023	    -13.75128868	     -1.59981209	     -1.58467371	     -4.59866410	    -13.42482145	    -29.74679502	     -5.51790066	      4.69491395	      7.00632541	     10.19162309	      4.65055897	     -9.30806848
      3.69000000	    -11.56230355	     -2.38661475	      0.60903718	     -1.50943598	     -0.02726854	     -0.69190961	     33.55779779	      2.06939290	     -7.20961902	    -20.86710529	     -7.53881483	    -14.21233178	     -1.75952815	     -1.04851522	     -5.07934641	    -13.36287093	    -31.42461954	     -7.30474134	      3.85115982	      6.67618436	     10.14049296	      4.93202224	     -9.25160615
